# xmcd
#
# Track frame offsets:
# 150
# 10591
# 28283
# 36487
# 57346
# 76826
# 90418
# 109082
# 126712
# 141646
# 158996
# 172443
#
# Disc length: 2413 seconds
#
# Revision: 0
# Processed by: cddbd v1.5.1PL0 Copyright (c) Steve Scherf et al.
# Submitted via: Audion 3.0.2 (http://www.panic.com/audion/)
#
DISCID=ad096b0c
DTITLE=Angela DiPrima - Candle in the Window
DYEAR=1900
DGENRE=
TTITLE0=That Rap Song
TTITLE1=Consider the Lilies
TTITLE2=Package
TTITLE3=Someone Far Away
TTITLE4=At the Cross
TTITLE5=This Slumber
TTITLE6=Folk Like Me
TTITLE7=Candle in the Window
TTITLE8=My Heart is Still
TTITLE9=Broken Alibaster
TTITLE10=Jason's Song
TTITLE11=The Beginning
EXTD=
EXTT0=
EXTT1=
EXTT2=
EXTT3=
EXTT4=
EXTT5=
EXTT6=
EXTT7=
EXTT8=
EXTT9=
EXTT10=
EXTT11=
PLAYORDER=
